<svg width="40" height="40" viewBox="0 0 40 40" fill="none" xmlns="http://www.w3.org/2000/svg">
  <defs>
    <linearGradient id="gradient" x1="4" y1="6" x2="36" y2="34" gradientUnits="userSpaceOnUse">
      <stop stop-color="#a855f7" />
      <stop offset="0.5" stop-color="#7c3aed" />
      <stop offset="1" stop-color="#22d3ee" />
    </linearGradient>
    <linearGradient id="trail" x1="10" y1="28" x2="30" y2="34" gradientUnits="userSpaceOnUse">
      <stop stop-color="rgba(168, 85, 247, 0.2)" />
      <stop offset="1" stop-color="rgba(34, 211, 238, 0.05)" />
    </linearGradient>
  </defs>
  <rect x="2" y="2" width="36" height="36" rx="12" fill="url(#gradient)" />
  <path d="M21.5 10.5c1.8 0 3.8.7 5.8 2 4.6 3 6.5 7.6 5.3 9.4-.6.8-1.8.8-3.2.2l-3.7 4.8c-.3.4-.8.4-1.2.2l-3.2-2-1.8 2.2c-.2.2-.4.3-.6.3h-.2c-.3 0-.7-.2-.8-.6l-1.1-3.8-3.6-1.4c-.4-.1-.6-.4-.7-.7 0-.3.2-.7.5-.8L19 18l-2.1-3.3c-.2-.3-.2-.7.1-1 .3-.3.7-.3 1-.1l3.2 2 1.5-3.9c.2-.5.6-.7 1-.7z" fill="#f8fafc"/>
  <path d="M9.5 28c4.5 2 9.8 2.8 15.1 2.4" stroke="url(#trail)" stroke-width="3" stroke-linecap="round" />
</svg>
